<?xml version="1.0" encoding="UTF-8" standalone="no"?>
<!DOCTYPE svg PUBLIC "-//W3C//DTD SVG 1.1//EN" "http://www.w3.org/Graphics/SVG/1.1/DTD/svg11.dtd">
<svg width="100%" height="100%" viewBox="0 0 1000 1000" version="1.1" xmlns="http://www.w3.org/2000/svg" xmlns:xlink="http://www.w3.org/1999/xlink" xml:space="preserve" xmlns:serif="http://www.serif.com/" style="fill-rule:evenodd;clip-rule:evenodd;stroke-linejoin:round;stroke-miterlimit:2;">
    <g transform="matrix(1,0,0,1,-4273.55,-1405)">
        <g transform="matrix(0.445749,0,0,0.925926,3228.98,1405)">
            <rect id="bing_icon" x="2343.41" y="0" width="2243.41" height="1080" style="fill:none;"/>
            <g id="bing_icon1" serif:id="bing_icon">
                <g id="bing-logo.svg" transform="matrix(5.50979,0,0,2.65246,3465.12,551.88)">
                    <g transform="matrix(1,0,0,1,-117,-171.705)">
                        <clipPath id="_clip1">
                            <rect x="0" y="0" width="234" height="343.41"/>
                        </clipPath>
                        <g clip-path="url(#_clip1)">
                            <g transform="matrix(1,0,0,1,-163,-82.94)">
                                <path d="M397,303.4C396.999,326.828 388.119,349.407 372.16,366.56C373.837,364.699 375.343,362.691 376.66,360.56C377.683,358.937 378.583,357.239 379.35,355.48C379.629,354.901 379.876,354.306 380.09,353.7C380.339,353.119 380.556,352.525 380.74,351.92C380.95,351.36 381.13,350.78 381.29,350.2C381.45,349.62 381.62,349 381.75,348.39L381.82,348.18C381.96,347.58 382.07,346.98 382.19,346.37C382.31,345.76 382.42,345.12 382.52,344.49C382.61,343.91 382.68,343.33 382.73,342.73C382.871,341.358 382.941,339.979 382.94,338.6C382.962,331.029 380.907,323.595 377,317.11C376.147,315.656 375.195,314.263 374.15,312.94C372.929,311.366 371.592,309.885 370.15,308.51C366.563,305.027 362.376,302.222 357.79,300.23C355.781,299.342 353.7,298.626 351.57,298.09L351.48,298.09L350.74,297.84L339.93,294.13L311.66,284.41L311.38,284.41L309.61,283.76C303.938,281.51 299.226,277.349 296.29,272L286,245.62L274.17,215.46L271.9,209.64L271.32,208.46C270.658,206.848 270.319,205.122 270.32,203.38C270.295,202.93 270.295,202.48 270.32,202.03C271.012,195.341 276.715,190.197 283.44,190.197C285.206,190.197 286.954,190.552 288.58,191.24L341.27,218.24L351.66,223.55C357.161,226.817 362.303,230.655 367,235C384.499,251.029 395.172,273.195 396.79,296.87C396.91,299.06 397,301.22 397,303.4Z" style="fill:url(#_Linear2);fill-rule:nonzero;"/>
                            </g>
                            <g transform="matrix(1,0,0,1,-163,-82.94)">
                                <path d="M382.91,338.56C382.91,341.183 382.669,343.801 382.19,346.38C382.05,347.05 381.91,347.73 381.75,348.38C381.45,349.58 381.13,350.74 380.75,351.91C380.54,352.51 380.33,353.11 380.1,353.69C379.87,354.27 379.61,354.87 379.36,355.47C378.593,357.229 377.693,358.927 376.67,360.55C375.351,362.68 373.845,364.687 372.17,366.55C364.49,375.04 338.42,390.18 328.81,396.34L307.48,409.34C291.85,418.97 277.07,425.79 258.48,426.25L255.88,426.25C254.68,426.25 253.49,426.25 252.31,426.18C221.779,425.005 193.717,408.835 177.39,383.01C169.965,371.321 165.287,358.098 163.71,344.34C167.209,363.865 184.359,378.214 204.195,378.214C211.007,378.214 217.714,376.522 223.71,373.29L223.85,373.22L225.94,371.97L234.43,366.97L245.24,360.57L245.24,360.27L246.63,359.44L343.34,302.15L350.78,297.74L351.52,297.99L351.61,297.99C353.741,298.524 355.822,299.24 357.83,300.13C362.416,302.122 366.603,304.927 370.19,308.41C371.632,309.785 372.969,311.266 374.19,312.84C375.234,314.163 376.186,315.557 377.04,317.01C380.922,323.524 382.952,330.977 382.91,338.56Z" style="fill:url(#_Linear3);fill-rule:nonzero;"/>
                            </g>
                            <g transform="matrix(1,0,0,1,-163,-82.94)">
                                <path d="M245.24,147.35L245.24,360.64L234.39,367L225.89,372L223.8,373.27C223.752,373.276 223.706,373.297 223.67,373.33C217.673,376.563 210.966,378.255 204.153,378.255C184.321,378.255 167.173,363.911 163.67,344.39C163.51,343.5 163.39,342.58 163.29,341.69C163.16,340.01 163.07,338.36 163.04,336.69L163.04,96.69C163.047,89.141 169.261,82.933 176.81,82.933C179.549,82.933 182.228,83.75 184.5,85.28L226.57,112.76C226.799,112.949 227.043,113.12 227.3,113.27C238.546,120.95 245.275,133.732 245.24,147.35Z" style="fill:url(#_Linear4);fill-rule:nonzero;"/>
                            </g>
                            <g opacity="0.15">
                                <g>
                                    <g transform="matrix(1,0,0,1,-163,-82.94)">
                                        <path d="M382.91,338.56C382.91,341.183 382.669,343.801 382.19,346.38C382.05,347.05 381.91,347.73 381.75,348.38C381.45,349.58 381.13,350.74 380.75,351.91C380.54,352.51 380.33,353.11 380.1,353.69C379.87,354.27 379.61,354.87 379.36,355.47C378.593,357.229 377.693,358.927 376.67,360.55C375.353,362.681 373.847,364.689 372.17,366.55C364.49,375.04 338.42,390.18 328.81,396.34L307.48,409.34C291.85,418.97 277.07,425.79 258.48,426.25L255.88,426.25C254.68,426.25 253.49,426.25 252.31,426.18C221.779,425.005 193.717,408.835 177.39,383.01C169.965,371.321 165.287,358.098 163.71,344.34C167.209,363.865 184.359,378.214 204.195,378.214C211.007,378.214 217.714,376.522 223.71,373.29L223.85,373.22L225.94,371.97L234.43,366.97L245.24,360.57L245.24,360.27L246.63,359.44L343.34,302.15L350.78,297.74L351.52,297.99L351.61,297.99C353.741,298.524 355.822,299.24 357.83,300.13C362.416,302.122 366.603,304.927 370.19,308.41C371.632,309.785 372.969,311.266 374.19,312.84C375.234,314.163 376.186,315.557 377.04,317.01C380.922,323.524 382.952,330.977 382.91,338.56Z" style="fill:url(#_Linear5);fill-rule:nonzero;"/>
                                    </g>
                                </g>
                            </g>
                            <g opacity="0.1">
                                <g>
                                    <g transform="matrix(1,0,0,1,-163,-82.94)">
                                        <path d="M245.24,147.35L245.24,360.64L234.39,367L225.89,372L223.8,373.27C223.752,373.276 223.706,373.297 223.67,373.33C217.673,376.563 210.966,378.255 204.153,378.255C184.321,378.255 167.173,363.911 163.67,344.39C163.51,343.5 163.39,342.58 163.29,341.69C163.16,340.01 163.07,338.36 163.04,336.69L163.04,96.69C163.047,89.141 169.261,82.933 176.81,82.933C179.549,82.933 182.228,83.75 184.5,85.28L226.57,112.76C226.799,112.949 227.043,113.12 227.3,113.27C238.546,120.95 245.275,133.732 245.24,147.35Z" style="fill:url(#_Linear6);fill-rule:nonzero;"/>
                                    </g>
                                </g>
                            </g>
                        </g>
                    </g>
                </g>
            </g>
        </g>
    </g>
    <defs>
        <linearGradient id="_Linear2" x1="0" y1="0" x2="1" y2="0" gradientUnits="userSpaceOnUse" gradientTransform="matrix(150.612,87.042,-87.042,150.612,252.017,234.581)"><stop offset="0" style="stop-color:rgb(55,189,255);stop-opacity:1"/><stop offset="0.18" style="stop-color:rgb(51,191,253);stop-opacity:1"/><stop offset="0.36" style="stop-color:rgb(40,197,245);stop-opacity:1"/><stop offset="0.53" style="stop-color:rgb(21,208,233);stop-opacity:1"/><stop offset="0.55" style="stop-color:rgb(18,209,231);stop-opacity:1"/><stop offset="0.59" style="stop-color:rgb(28,210,229);stop-opacity:1"/><stop offset="0.77" style="stop-color:rgb(66,216,220);stop-opacity:1"/><stop offset="0.91" style="stop-color:rgb(89,219,214);stop-opacity:1"/><stop offset="1" style="stop-color:rgb(98,220,212);stop-opacity:1"/></linearGradient>
        <linearGradient id="_Linear3" x1="0" y1="0" x2="1" y2="0" gradientUnits="userSpaceOnUse" gradientTransform="matrix(219.316,0,0,219.316,163.753,365.144)"><stop offset="0" style="stop-color:rgb(57,210,255);stop-opacity:1"/><stop offset="0.15" style="stop-color:rgb(56,206,254);stop-opacity:1"/><stop offset="0.29" style="stop-color:rgb(53,195,250);stop-opacity:1"/><stop offset="0.55" style="stop-color:rgb(41,154,235);stop-opacity:1"/><stop offset="0.58" style="stop-color:rgb(38,146,236);stop-opacity:1"/><stop offset="0.76" style="stop-color:rgb(26,108,241);stop-opacity:1"/><stop offset="0.91" style="stop-color:rgb(19,85,244);stop-opacity:1"/><stop offset="1" style="stop-color:rgb(16,76,245);stop-opacity:1"/></linearGradient>
        <linearGradient id="_Linear4" x1="0" y1="0" x2="1" y2="0" gradientUnits="userSpaceOnUse" gradientTransform="matrix(1.79506e-14,-293.156,293.156,1.79506e-14,204.34,384.215)"><stop offset="0" style="stop-color:rgb(27,72,239);stop-opacity:1"/><stop offset="0.12" style="stop-color:rgb(28,81,240);stop-opacity:1"/><stop offset="0.32" style="stop-color:rgb(30,105,245);stop-opacity:1"/><stop offset="0.57" style="stop-color:rgb(33,144,251);stop-opacity:1"/><stop offset="1" style="stop-color:rgb(38,184,244);stop-opacity:1"/></linearGradient>
        <linearGradient id="_Linear5" x1="0" y1="0" x2="1" y2="0" gradientUnits="userSpaceOnUse" gradientTransform="matrix(135.453,-135.209,135.209,135.453,207.274,419.179)"><stop offset="0" style="stop-color:white;stop-opacity:1"/><stop offset="0.6" style="stop-color:rgb(235,235,235);stop-opacity:1"/><stop offset="0.68" style="stop-color:rgb(218,218,218);stop-opacity:1"/><stop offset="0.75" style="stop-color:rgb(196,196,196);stop-opacity:1"/><stop offset="0.81" style="stop-color:rgb(168,168,168);stop-opacity:1"/><stop offset="0.86" style="stop-color:rgb(136,136,136);stop-opacity:1"/><stop offset="0.91" style="stop-color:rgb(98,98,98);stop-opacity:1"/><stop offset="0.95" style="stop-color:rgb(55,55,55);stop-opacity:1"/><stop offset="0.99" style="stop-color:rgb(9,9,9);stop-opacity:1"/><stop offset="1" style="stop-color:black;stop-opacity:1"/></linearGradient>
        <linearGradient id="_Linear6" x1="0" y1="0" x2="1" y2="0" gradientUnits="userSpaceOnUse" gradientTransform="matrix(2.18446e-13,-3567.5,3567.5,2.18446e-13,-2401.6,197388)"><stop offset="0" style="stop-color:white;stop-opacity:1"/><stop offset="0.6" style="stop-color:rgb(235,235,235);stop-opacity:1"/><stop offset="0.68" style="stop-color:rgb(218,218,218);stop-opacity:1"/><stop offset="0.75" style="stop-color:rgb(196,196,196);stop-opacity:1"/><stop offset="0.81" style="stop-color:rgb(168,168,168);stop-opacity:1"/><stop offset="0.86" style="stop-color:rgb(136,136,136);stop-opacity:1"/><stop offset="0.91" style="stop-color:rgb(98,98,98);stop-opacity:1"/><stop offset="0.95" style="stop-color:rgb(55,55,55);stop-opacity:1"/><stop offset="0.99" style="stop-color:rgb(9,9,9);stop-opacity:1"/><stop offset="1" style="stop-color:black;stop-opacity:1"/></linearGradient>
    </defs>
</svg>
