<?xml version="1.0" encoding="UTF-8" standalone="no"?>
<!DOCTYPE svg PUBLIC "-//W3C//DTD SVG 1.1//EN" "http://www.w3.org/Graphics/SVG/1.1/DTD/svg11.dtd">
<svg width="100%" height="100%" viewBox="0 0 1000 1000" version="1.1" xmlns="http://www.w3.org/2000/svg" xmlns:xlink="http://www.w3.org/1999/xlink" xml:space="preserve" xmlns:serif="http://www.serif.com/" style="fill-rule:evenodd;clip-rule:evenodd;stroke-linejoin:round;stroke-miterlimit:2;">
    <g transform="matrix(1,0,0,1,-5357.98,-1405)">
        <g transform="matrix(0.445749,0,0,0.925926,4313.4,1405)">
            <rect id="internet_archive_icon" x="2343.41" y="0" width="2243.41" height="1080" style="fill:none;"/>
            <g id="internet_archive_icon1" serif:id="internet_archive_icon">
                <g id="archive-icon.svg" transform="matrix(30.1459,0,0,14.5125,3465.12,540)">
                    <g transform="matrix(1,0,0,1,-32,-32)">
                        <clipPath id="_clip1">
                            <rect x="0" y="0" width="64" height="64"/>
                        </clipPath>
                        <g clip-path="url(#_clip1)">
                            <g transform="matrix(1.13074,0,0,1,-3.70883,1.45)">
                                <path d="M5.94,57.95C5.94,57.398 6.336,56.95 6.824,56.95C13.113,56.95 50.993,56.95 57.282,56.95C57.77,56.95 58.166,57.398 58.166,57.95C58.166,58.967 58.166,60.533 58.166,61.55C58.166,62.102 57.77,62.55 57.282,62.55C50.993,62.55 13.113,62.55 6.824,62.55C6.336,62.55 5.94,62.102 5.94,61.55C5.94,60.533 5.94,58.967 5.94,57.95ZM5.608,10.764C5.608,10.212 6.004,9.764 6.492,9.764C12.76,9.764 50.404,9.764 56.672,9.764C57.16,9.764 57.556,10.212 57.556,10.764C57.556,11.781 57.556,13.347 57.556,14.364C57.556,14.916 57.16,15.364 56.672,15.364C50.404,15.364 12.76,15.364 6.492,15.364C6.004,15.364 5.608,14.916 5.608,14.364C5.608,13.347 5.608,11.781 5.608,10.764ZM5.94,6.64L57.2,6.64L58.76,4.91L31.6,-1.45L4.4,4.91L5.94,6.64ZM13.1,34.01L12.876,25.81L12.484,18.07C12.474,17.87 12.378,17.8 12.194,17.758C10.682,17.43 9.118,17.43 7.606,17.758C7.422,17.798 7.326,17.846 7.316,18.07L6.924,25.81L6.7,34.01L6.72,39.838L6.89,46.302L7.256,53.232L7.36,54.546C8.19,54.769 9.045,54.89 9.904,54.906C10.748,54.896 11.594,54.766 12.448,54.546L12.552,53.232L12.918,46.302L13.088,39.838L13.108,34.01L13.1,34.01ZM27.244,34.01L27.02,25.81L26.628,18.07C26.618,17.87 26.522,17.8 26.338,17.758C24.826,17.43 23.262,17.43 21.75,17.758C21.566,17.798 21.47,17.846 21.46,18.07L21.068,25.81L20.844,34.01L20.864,39.838L21.034,46.302L21.4,53.232L21.504,54.546C22.334,54.768 23.189,54.889 24.048,54.906C24.892,54.896 25.738,54.766 26.592,54.546L26.696,53.232L27.06,46.302L27.23,39.838L27.25,34.01L27.244,34.01ZM43.648,34.01L43.424,25.81L43.032,18.07C43.022,17.87 42.926,17.8 42.742,17.758C41.982,17.592 41.216,17.514 40.448,17.512C39.677,17.512 38.908,17.594 38.154,17.758C37.97,17.798 37.874,17.846 37.864,18.07L37.472,25.81L37.248,34.01L37.268,39.838L37.438,46.302L37.804,53.232L37.908,54.546C38.738,54.768 39.593,54.889 40.452,54.906C41.296,54.896 42.142,54.766 42.996,54.546L43.1,53.232L43.466,46.302L43.636,39.838L43.656,34.01L43.648,34.01ZM57.46,34.01L57.236,25.81L56.844,18.07C56.834,17.87 56.738,17.8 56.554,17.758C55.794,17.592 55.028,17.514 54.26,17.512C53.489,17.512 52.72,17.594 51.966,17.758C51.782,17.798 51.686,17.846 51.676,18.07L51.284,25.81L51.06,34.01L51.08,39.838L51.25,46.302L51.614,53.232L51.718,54.546C52.548,54.768 53.403,54.889 54.262,54.906C55.121,54.89 55.976,54.769 56.806,54.546L56.91,53.232L57.276,46.302L57.446,39.838L57.466,34.01L57.46,34.01Z" style="fill:rgb(45,45,45);fill-rule:nonzero;"/>
                            </g>
                        </g>
                    </g>
                </g>
            </g>
        </g>
    </g>
</svg>
