<?xml version="1.0" encoding="UTF-8" standalone="no"?>
<!DOCTYPE svg PUBLIC "-//W3C//DTD SVG 1.1//EN" "http://www.w3.org/Graphics/SVG/1.1/DTD/svg11.dtd">
<svg width="100%" height="100%" viewBox="0 0 1000 1000" version="1.1" xmlns="http://www.w3.org/2000/svg" xmlns:xlink="http://www.w3.org/1999/xlink" xml:space="preserve" xmlns:serif="http://www.serif.com/" style="fill-rule:evenodd;clip-rule:evenodd;stroke-linejoin:round;stroke-miterlimit:2;">
    <g transform="matrix(1,0,0,1,-3177.32,-1405)">
        <g transform="matrix(0.445749,0,0,0.925926,2132.74,1405)">
            <rect id="youtube_icon" x="2343.41" y="0" width="2243.41" height="1080" style="fill:none;"/>
            <g id="youtube_icon1" serif:id="youtube_icon">
                <g id="YouTube-Icon-Full-Color-Logo.wine.svg" transform="matrix(2.39111,0,0,1.1511,3465.12,540)">
                    <g transform="matrix(1,0,0,1,-600,-400)">
                        <path d="M962.677,216.614C953.97,183.833 928.322,158.017 895.747,149.256C836.718,133.333 599.998,133.333 599.998,133.333C599.998,133.333 363.282,133.333 304.249,149.256C271.675,158.017 246.02,183.833 237.32,216.614C221.504,276.03 221.504,400.002 221.504,400.002C221.504,400.002 221.504,523.966 237.32,583.389C246.02,616.173 271.675,641.983 304.246,650.754C363.279,666.67 599.995,666.67 599.995,666.67C599.995,666.67 836.715,666.67 895.744,650.754C928.318,641.986 953.967,616.173 962.673,583.392C978.493,523.97 978.493,400.005 978.493,400.005C978.493,400.005 978.493,276.034 962.673,216.617" style="fill:rgb(255,0,0);fill-rule:nonzero;"/>
                        <path d="M522.579,512.557L720.428,400.008L522.579,287.447L522.579,512.557Z" style="fill:white;fill-rule:nonzero;"/>
                    </g>
                </g>
            </g>
        </g>
    </g>
</svg>
